<?xml version="1.0" standalone="no"?>
<!DOCTYPE svg PUBLIC "-//W3C//DTD SVG 20010904//EN"
 "http://www.w3.org/TR/2001/REC-SVG-20010904/DTD/svg10.dtd">
<svg version="1.0" xmlns="http://www.w3.org/2000/svg"
 width="16.000000pt" height="16.000000pt" viewBox="0 0 16.000000 16.000000"
 preserveAspectRatio="xMidYMid meet">
<metadata>
Created by potrace 1.11, written by Peter Selinger 2001-2013
</metadata>
<g transform="translate(0.000000,16.000000) scale(0.018824,-0.018824)"
fill="#000000" stroke="none">
<path d="M186 692 c-2 -2 -17 -4 -34 -4 -26 -1 -34 -9 -65 -67 -19 -36 -39
-82 -45 -102 -9 -35 -8 -38 30 -70 22 -19 54 -48 71 -65 53 -51 258 -214 270
-215 26 -3 42 4 81 34 23 18 43 34 46 38 3 3 34 29 69 58 35 29 70 58 77 64 6
7 35 32 64 57 76 66 77 75 29 175 -23 47 -44 85 -48 86 -3 0 -15 3 -26 6 -23
6 -514 11 -519 5z"/>
</g>
</svg>
